{"title":"John Carter 2012 TS XViD FULL LiNE DTRG","uid":7139673,"size":2020800738,"categoryP":"video","categoryS":"movies","magnet":"?xt=urn:btih:8a534f8401265d881535cce44e3ad5e2f50b4e1a&amp;dn=John+Carter+2012+TS+XViD+FULL+LiNE+DTRG&amp;tr=udp%3A%2F%2Ftracker.openbittorrent.com%3A80&amp;tr=udp%3A%2F%2Fopen.demonii.com%3A1337&amp;tr=udp%3A%2F%2Ftracker.coppersurfer.tk%3A6969&amp;tr=udp%3A%2F%2Fexodus.desync.com%3A6969","seeders":0,"leechers":0,"uploader":"BLOVES","files":3,"time":1332960305,"description":"Format : AVI\nFormat/Info : Audio Video Interleave\nFile size : 1.86 GiB\nDuration : 2h 2mn\nOverall bit rate : 2 171 Kbps\nWriting application : VirtualDubMod 1.5.10.2 (build 2540/release)\nWriting library : VirtualDubMod build 2540/release\n\nVideo\nID : 0\nFormat : MPEG-4 Visual\nFormat profile : Advanced Simple@L5\nFormat settings, BVOP : 2\nFormat settings, QPel : No\nFormat settings, GMC : No warppoints\nFormat settings, Matrix : Default (H.263)\nMuxing mode : Packed bitstream\nCodec ID : XVID\nCodec ID/Hint : XviD\nDuration : 2h 2mn\nBit rate : 2 034 Kbps\nWidth : 672 pixels\nHeight : 282 pixels\nDisplay aspect ratio : 2.40:1\nFrame rate : 25.000 fps\nColor space : YUV\nChroma subsampling : 4:2:0\nBit depth : 8 bits\nScan type : Progressive\nCompression mode : Lossy\nBits/(Pixel*Frame) : 0.429\nStream size : 1.74 GiB (94%)\nWriting library : XviD 64\n\nAudio\nID : 1\nFormat : MPEG Audio\nFormat version : Version 1\nFormat profile : Layer 3\nMode : Joint stereo\nMode extension : MS Stereo\nCodec ID : 55\nCodec ID/Hint : MP3\nDuration : 2h 2mn\nBit rate mode : Constant\nBit rate : 128 Kbps\nChannel(s) : 2 channels\nSampling rate : 44.1 KHz\nCompression mode : Lossy\nStream size : 112 MiB (6%)\nAlignment : Split accross interleaves\nInterleave, duration : 40 ms (1.00 video frame)\nInterleave, preload duration : 500 ms\nWriting library : LAME3.99r\nEncoding settings : -m j -V 4 -q 2 -lowpass 17 -b 128\n\n\n\n\n\n\n\n\n &lt;a href=&quot;\nhttp://www.imdb.com/title/tt0401729/&quot; rel=&quot;nofollow&quot; target=&quot;_NEW&quot;&gt;\nhttp://www.imdb.com/title/tt0401729/&lt;/a&gt;\n\n\n\n\nRatings: 7.1/10 from 15,985 users Metascore: 53/100 \nReviews: 268 user | 260 critic | 39 from Metacritic.com\n\nTransplanted to Mars, a Civil War vet discovers a lush planet inhabited by 12-foot tall barbarians. Finding himself a prisoner of these creatures, he escapes, only to encounter a princess who is in desperate need of a savior.\n\nDirector:\nAndrew Stanton\nWriters:\nAndrew Stanton (screenplay), Mark Andrews (screenplay), and 2 more credits Â»\nStars:\nTaylor Kitsch, Lynn Collins and Willem Dafoe \n\n\n\n\n\n\nSource Used\n\n\n\n26k.....Thanks\n\niLLUMINATI.........Thanks","torrent":{"xt":"urn:btih:8a534f8401265d881535cce44e3ad5e2f50b4e1a","amp;dn":"John+Carter+2012+TS+XViD+FULL+LiNE+DTRG","amp;tr":["udp%3A%2F%2Ftracker.openbittorrent.com%3A80","udp%3A%2F%2Fopen.demonii.com%3A1337","udp%3A%2F%2Ftracker.coppersurfer.tk%3A6969","udp%3A%2F%2Fexodus.desync.com%3A6969"],"infoHash":"8a534f8401265d881535cce44e3ad5e2f50b4e1a","infoHashBuffer":{"type":"Buffer","data":[138,83,79,132,1,38,93,136,21,53,204,228,78,58,213,226,245,11,78,26]},"announce":[],"urlList":[]}}